# xmcd
#
# Track frame offsets:
#	150
#	17665
#	26812
#	39777
#	55815
#	67380
#	77642
#	88912
#	101597
#	112247
#	122965
#	137462
#	151282
#	162795
#	171667
#	185687
#	197617
#	207822
#
# Disc length: 2954 seconds
#
# Revision: 8
# Processed by: cddbd v1.5.2PL0 Copyright (c) Steve Scherf et al.
# Submitted via: EZCDAudioConverter 1.3.4.1
#
DISCID=fe0b8812
DTITLE=The Byrds - Turn! Turn! Turn!
DYEAR=2011
DGENRE=
TTITLE0=Turn! Turn! Turn! (To Everything There Is A Season)
TTITLE1=It Won't Be Wrong
TTITLE2=Set You Free This Time
TTITLE3=Lay Down Your Weary Tune
TTITLE4=He Was A Friend Of Mine
TTITLE5=The World Turns All Around Her
TTITLE6=Satisfied Mind
TTITLE7=If You're Gone
TTITLE8=The Times They Are A-Changin'
TTITLE9=Wait And See
TTITLE10=Oh! Susannah
TTITLE11=The Day Walk (Never Before)
TTITLE12=She Don't Care About Time [Single]
TTITLE13=The Times They Are A-Changin' [First Version]
TTITLE14=It's All Over Now, Baby Blue [Version 1]
TTITLE15=She Don't Care About Time [Version 1]
TTITLE16=The World Turns All Around Her [Alternate Mix]
TTITLE17=Stranger In A Strange Land [Instrumental]
EXTD=
EXTT0=
EXTT1=
EXTT2=
EXTT3=
EXTT4=
EXTT5=
EXTT6=
EXTT7=
EXTT8=
EXTT9=
EXTT10=
EXTT11=
EXTT12=
EXTT13=
EXTT14=
EXTT15=
EXTT16=
EXTT17=
PLAYORDER=
